<mxfile host="app.diagrams.net" modified="2024-04-24T13:04:25.518Z" agent="Mozilla/5.0 (X11; Ubuntu; Linux x86_64; rv:122.0) Gecko/20100101 Firefox/122.0" etag="DGnxx1mR6F2_tqq5kNDD" version="24.3.0" type="device">
  <diagram name="Page-1" id="vvTHul9dg_5FJ8HOvSc6">
    <mxGraphModel dx="2204" dy="678" grid="1" gridSize="10" guides="1" tooltips="1" connect="1" arrows="1" fold="1" page="1" pageScale="1" pageWidth="850" pageHeight="1100" math="0" shadow="0">
      <root>
        <mxCell id="0" />
        <mxCell id="1" parent="0" />
        <mxCell id="JoFrPP1Ufc71w04oQLTG-5" value="" style="edgeStyle=orthogonalEdgeStyle;rounded=0;orthogonalLoop=1;jettySize=auto;html=1;startArrow=classic;startFill=1;" edge="1" parent="1" source="JoFrPP1Ufc71w04oQLTG-2" target="JoFrPP1Ufc71w04oQLTG-4">
          <mxGeometry relative="1" as="geometry" />
        </mxCell>
        <mxCell id="JoFrPP1Ufc71w04oQLTG-2" value="1" style="ellipse;whiteSpace=wrap;html=1;" vertex="1" parent="1">
          <mxGeometry x="80" y="200" width="80" height="80" as="geometry" />
        </mxCell>
        <mxCell id="JoFrPP1Ufc71w04oQLTG-7" value="" style="edgeStyle=orthogonalEdgeStyle;rounded=0;orthogonalLoop=1;jettySize=auto;html=1;strokeColor=default;align=center;verticalAlign=middle;fontFamily=Helvetica;fontSize=11;fontColor=default;labelBackgroundColor=default;startArrow=classic;startFill=1;endArrow=classic;" edge="1" parent="1" source="JoFrPP1Ufc71w04oQLTG-4" target="JoFrPP1Ufc71w04oQLTG-6">
          <mxGeometry relative="1" as="geometry" />
        </mxCell>
        <mxCell id="JoFrPP1Ufc71w04oQLTG-13" value="" style="edgeStyle=orthogonalEdgeStyle;rounded=0;orthogonalLoop=1;jettySize=auto;html=1;" edge="1" parent="1" source="JoFrPP1Ufc71w04oQLTG-4" target="JoFrPP1Ufc71w04oQLTG-12">
          <mxGeometry relative="1" as="geometry">
            <Array as="points">
              <mxPoint x="280" y="320" />
              <mxPoint x="-120" y="320" />
            </Array>
          </mxGeometry>
        </mxCell>
        <mxCell id="JoFrPP1Ufc71w04oQLTG-4" value="2" style="ellipse;whiteSpace=wrap;html=1;" vertex="1" parent="1">
          <mxGeometry x="240" y="200" width="80" height="80" as="geometry" />
        </mxCell>
        <mxCell id="JoFrPP1Ufc71w04oQLTG-9" value="" style="edgeStyle=orthogonalEdgeStyle;rounded=0;orthogonalLoop=1;jettySize=auto;html=1;strokeColor=default;align=center;verticalAlign=middle;fontFamily=Helvetica;fontSize=11;fontColor=default;labelBackgroundColor=default;startArrow=classic;startFill=1;endArrow=classic;" edge="1" parent="1" source="JoFrPP1Ufc71w04oQLTG-6" target="JoFrPP1Ufc71w04oQLTG-8">
          <mxGeometry relative="1" as="geometry" />
        </mxCell>
        <mxCell id="JoFrPP1Ufc71w04oQLTG-21" value="" style="edgeStyle=orthogonalEdgeStyle;rounded=0;orthogonalLoop=1;jettySize=auto;html=1;" edge="1" parent="1" source="JoFrPP1Ufc71w04oQLTG-6" target="JoFrPP1Ufc71w04oQLTG-20">
          <mxGeometry relative="1" as="geometry">
            <Array as="points">
              <mxPoint x="440" y="320" />
              <mxPoint x="530" y="320" />
            </Array>
          </mxGeometry>
        </mxCell>
        <mxCell id="JoFrPP1Ufc71w04oQLTG-6" value="3" style="ellipse;whiteSpace=wrap;html=1;" vertex="1" parent="1">
          <mxGeometry x="400" y="200" width="80" height="80" as="geometry" />
        </mxCell>
        <mxCell id="JoFrPP1Ufc71w04oQLTG-11" value="" style="edgeStyle=orthogonalEdgeStyle;rounded=0;orthogonalLoop=1;jettySize=auto;html=1;strokeColor=default;align=center;verticalAlign=middle;fontFamily=Helvetica;fontSize=11;fontColor=default;labelBackgroundColor=default;startArrow=classic;startFill=1;endArrow=classic;" edge="1" parent="1" source="JoFrPP1Ufc71w04oQLTG-8" target="JoFrPP1Ufc71w04oQLTG-10">
          <mxGeometry relative="1" as="geometry" />
        </mxCell>
        <mxCell id="JoFrPP1Ufc71w04oQLTG-8" value="..." style="ellipse;whiteSpace=wrap;html=1;" vertex="1" parent="1">
          <mxGeometry x="560" y="200" width="80" height="80" as="geometry" />
        </mxCell>
        <mxCell id="JoFrPP1Ufc71w04oQLTG-10" value="k" style="ellipse;whiteSpace=wrap;html=1;" vertex="1" parent="1">
          <mxGeometry x="720" y="200" width="80" height="80" as="geometry" />
        </mxCell>
        <mxCell id="JoFrPP1Ufc71w04oQLTG-15" value="" style="edgeStyle=orthogonalEdgeStyle;rounded=0;orthogonalLoop=1;jettySize=auto;html=1;strokeColor=default;align=center;verticalAlign=middle;fontFamily=Helvetica;fontSize=11;fontColor=default;labelBackgroundColor=default;startArrow=classic;startFill=1;endArrow=classic;" edge="1" parent="1" source="JoFrPP1Ufc71w04oQLTG-12" target="JoFrPP1Ufc71w04oQLTG-14">
          <mxGeometry relative="1" as="geometry" />
        </mxCell>
        <mxCell id="JoFrPP1Ufc71w04oQLTG-12" value="a" style="ellipse;whiteSpace=wrap;html=1;" vertex="1" parent="1">
          <mxGeometry x="-160" y="390" width="80" height="80" as="geometry" />
        </mxCell>
        <mxCell id="JoFrPP1Ufc71w04oQLTG-17" value="" style="edgeStyle=orthogonalEdgeStyle;rounded=0;orthogonalLoop=1;jettySize=auto;html=1;strokeColor=default;align=center;verticalAlign=middle;fontFamily=Helvetica;fontSize=11;fontColor=default;labelBackgroundColor=default;startArrow=classic;startFill=1;endArrow=classic;" edge="1" parent="1" source="JoFrPP1Ufc71w04oQLTG-14" target="JoFrPP1Ufc71w04oQLTG-16">
          <mxGeometry relative="1" as="geometry" />
        </mxCell>
        <mxCell id="JoFrPP1Ufc71w04oQLTG-14" value="b" style="ellipse;whiteSpace=wrap;html=1;" vertex="1" parent="1">
          <mxGeometry y="390" width="80" height="80" as="geometry" />
        </mxCell>
        <mxCell id="JoFrPP1Ufc71w04oQLTG-19" value="" style="edgeStyle=orthogonalEdgeStyle;rounded=0;orthogonalLoop=1;jettySize=auto;html=1;strokeColor=default;align=center;verticalAlign=middle;fontFamily=Helvetica;fontSize=11;fontColor=default;labelBackgroundColor=default;startArrow=classic;startFill=1;endArrow=classic;" edge="1" parent="1" source="JoFrPP1Ufc71w04oQLTG-16" target="JoFrPP1Ufc71w04oQLTG-18">
          <mxGeometry relative="1" as="geometry" />
        </mxCell>
        <mxCell id="JoFrPP1Ufc71w04oQLTG-16" value="..." style="ellipse;whiteSpace=wrap;html=1;" vertex="1" parent="1">
          <mxGeometry x="160" y="390" width="80" height="80" as="geometry" />
        </mxCell>
        <mxCell id="JoFrPP1Ufc71w04oQLTG-18" value="z" style="ellipse;whiteSpace=wrap;html=1;" vertex="1" parent="1">
          <mxGeometry x="320" y="390" width="80" height="80" as="geometry" />
        </mxCell>
        <mxCell id="JoFrPP1Ufc71w04oQLTG-23" value="" style="edgeStyle=orthogonalEdgeStyle;rounded=0;orthogonalLoop=1;jettySize=auto;html=1;strokeColor=default;align=center;verticalAlign=middle;fontFamily=Helvetica;fontSize=11;fontColor=default;labelBackgroundColor=default;startArrow=classic;startFill=1;endArrow=classic;" edge="1" parent="1" source="JoFrPP1Ufc71w04oQLTG-20" target="JoFrPP1Ufc71w04oQLTG-22">
          <mxGeometry relative="1" as="geometry" />
        </mxCell>
        <mxCell id="JoFrPP1Ufc71w04oQLTG-20" value="a" style="ellipse;whiteSpace=wrap;html=1;" vertex="1" parent="1">
          <mxGeometry x="490" y="390" width="80" height="80" as="geometry" />
        </mxCell>
        <mxCell id="JoFrPP1Ufc71w04oQLTG-25" value="" style="edgeStyle=orthogonalEdgeStyle;rounded=0;orthogonalLoop=1;jettySize=auto;html=1;strokeColor=default;align=center;verticalAlign=middle;fontFamily=Helvetica;fontSize=11;fontColor=default;labelBackgroundColor=default;startArrow=classic;startFill=1;endArrow=classic;" edge="1" parent="1" source="JoFrPP1Ufc71w04oQLTG-22" target="JoFrPP1Ufc71w04oQLTG-24">
          <mxGeometry relative="1" as="geometry" />
        </mxCell>
        <mxCell id="JoFrPP1Ufc71w04oQLTG-22" value="b" style="ellipse;whiteSpace=wrap;html=1;" vertex="1" parent="1">
          <mxGeometry x="650" y="390" width="80" height="80" as="geometry" />
        </mxCell>
        <mxCell id="JoFrPP1Ufc71w04oQLTG-27" value="" style="edgeStyle=orthogonalEdgeStyle;rounded=0;orthogonalLoop=1;jettySize=auto;html=1;strokeColor=default;align=center;verticalAlign=middle;fontFamily=Helvetica;fontSize=11;fontColor=default;labelBackgroundColor=default;startArrow=classic;startFill=1;endArrow=classic;" edge="1" parent="1" source="JoFrPP1Ufc71w04oQLTG-24" target="JoFrPP1Ufc71w04oQLTG-26">
          <mxGeometry relative="1" as="geometry" />
        </mxCell>
        <mxCell id="JoFrPP1Ufc71w04oQLTG-24" value="..." style="ellipse;whiteSpace=wrap;html=1;" vertex="1" parent="1">
          <mxGeometry x="810" y="390" width="80" height="80" as="geometry" />
        </mxCell>
        <mxCell id="JoFrPP1Ufc71w04oQLTG-26" value="z" style="ellipse;whiteSpace=wrap;html=1;" vertex="1" parent="1">
          <mxGeometry x="970" y="390" width="80" height="80" as="geometry" />
        </mxCell>
        <mxCell id="JoFrPP1Ufc71w04oQLTG-28" value="" style="html=1;shadow=0;dashed=0;shape=mxgraph.bootstrap.rrect;rSize=5;strokeColor=#DFDFDF;html=1;whiteSpace=wrap;fillColor=#FFFFFF;fontColor=#000000;" vertex="1" parent="1">
          <mxGeometry x="625" y="530" width="200" height="150" as="geometry" />
        </mxCell>
        <mxCell id="JoFrPP1Ufc71w04oQLTG-29" value="bah" style="html=1;shadow=0;dashed=0;shape=mxgraph.bootstrap.topButton;rSize=5;strokeColor=inherit;fillColor=#ffffff;fontColor=#6C767D;perimeter=none;whiteSpace=wrap;resizeWidth=1;align=left;spacing=10;" vertex="1" parent="JoFrPP1Ufc71w04oQLTG-28">
          <mxGeometry width="200" height="30" relative="1" as="geometry" />
        </mxCell>
        <mxCell id="JoFrPP1Ufc71w04oQLTG-30" value="bai" style="strokeColor=inherit;fillColor=inherit;gradientColor=inherit;fontColor=inherit;html=1;shadow=0;dashed=0;perimeter=none;whiteSpace=wrap;resizeWidth=1;align=left;spacing=10;" vertex="1" parent="JoFrPP1Ufc71w04oQLTG-28">
          <mxGeometry width="200" height="30" relative="1" as="geometry">
            <mxPoint y="30" as="offset" />
          </mxGeometry>
        </mxCell>
        <mxCell id="JoFrPP1Ufc71w04oQLTG-31" value="bao" style="strokeColor=inherit;fillColor=inherit;gradientColor=inherit;fontColor=inherit;html=1;shadow=0;dashed=0;perimeter=none;whiteSpace=wrap;resizeWidth=1;align=left;spacing=10;" vertex="1" parent="JoFrPP1Ufc71w04oQLTG-28">
          <mxGeometry width="200" height="30" relative="1" as="geometry">
            <mxPoint y="60" as="offset" />
          </mxGeometry>
        </mxCell>
        <mxCell id="JoFrPP1Ufc71w04oQLTG-32" value="bar" style="strokeColor=inherit;fillColor=inherit;gradientColor=inherit;fontColor=inherit;html=1;shadow=0;dashed=0;perimeter=none;whiteSpace=wrap;resizeWidth=1;align=left;spacing=10;" vertex="1" parent="JoFrPP1Ufc71w04oQLTG-28">
          <mxGeometry width="200" height="30" relative="1" as="geometry">
            <mxPoint y="90" as="offset" />
          </mxGeometry>
        </mxCell>
        <mxCell id="JoFrPP1Ufc71w04oQLTG-33" value="..." style="strokeColor=inherit;fillColor=inherit;gradientColor=inherit;fontColor=inherit;html=1;shadow=0;dashed=0;shape=mxgraph.bootstrap.bottomButton;rSize=5;perimeter=none;whiteSpace=wrap;resizeWidth=1;resizeHeight=0;align=left;spacing=10;" vertex="1" parent="JoFrPP1Ufc71w04oQLTG-28">
          <mxGeometry y="1" width="200" height="30" relative="1" as="geometry">
            <mxPoint y="-30" as="offset" />
          </mxGeometry>
        </mxCell>
        <mxCell id="JoFrPP1Ufc71w04oQLTG-34" value="" style="html=1;shadow=0;dashed=0;shape=mxgraph.bootstrap.rrect;rSize=5;strokeColor=#DFDFDF;html=1;whiteSpace=wrap;fillColor=#FFFFFF;fontColor=#000000;" vertex="1" parent="1">
          <mxGeometry x="425" y="530" width="200" height="150" as="geometry" />
        </mxCell>
        <mxCell id="JoFrPP1Ufc71w04oQLTG-35" value="abc" style="html=1;shadow=0;dashed=0;shape=mxgraph.bootstrap.topButton;rSize=5;strokeColor=inherit;fillColor=#ffffff;fontColor=#6C767D;perimeter=none;whiteSpace=wrap;resizeWidth=1;align=left;spacing=10;" vertex="1" parent="JoFrPP1Ufc71w04oQLTG-34">
          <mxGeometry width="200" height="30" relative="1" as="geometry" />
        </mxCell>
        <mxCell id="JoFrPP1Ufc71w04oQLTG-36" value="abs" style="strokeColor=inherit;fillColor=inherit;gradientColor=inherit;fontColor=inherit;html=1;shadow=0;dashed=0;perimeter=none;whiteSpace=wrap;resizeWidth=1;align=left;spacing=10;" vertex="1" parent="JoFrPP1Ufc71w04oQLTG-34">
          <mxGeometry width="200" height="30" relative="1" as="geometry">
            <mxPoint y="30" as="offset" />
          </mxGeometry>
        </mxCell>
        <mxCell id="JoFrPP1Ufc71w04oQLTG-37" value="abe" style="strokeColor=inherit;fillColor=inherit;gradientColor=inherit;fontColor=inherit;html=1;shadow=0;dashed=0;perimeter=none;whiteSpace=wrap;resizeWidth=1;align=left;spacing=10;" vertex="1" parent="JoFrPP1Ufc71w04oQLTG-34">
          <mxGeometry width="200" height="30" relative="1" as="geometry">
            <mxPoint y="60" as="offset" />
          </mxGeometry>
        </mxCell>
        <mxCell id="JoFrPP1Ufc71w04oQLTG-38" value="ade" style="strokeColor=inherit;fillColor=inherit;gradientColor=inherit;fontColor=inherit;html=1;shadow=0;dashed=0;perimeter=none;whiteSpace=wrap;resizeWidth=1;align=left;spacing=10;" vertex="1" parent="JoFrPP1Ufc71w04oQLTG-34">
          <mxGeometry width="200" height="30" relative="1" as="geometry">
            <mxPoint y="90" as="offset" />
          </mxGeometry>
        </mxCell>
        <mxCell id="JoFrPP1Ufc71w04oQLTG-39" value="&lt;div&gt;...&lt;/div&gt;" style="strokeColor=inherit;fillColor=inherit;gradientColor=inherit;fontColor=inherit;html=1;shadow=0;dashed=0;shape=mxgraph.bootstrap.bottomButton;rSize=5;perimeter=none;whiteSpace=wrap;resizeWidth=1;resizeHeight=0;align=left;spacing=10;" vertex="1" parent="JoFrPP1Ufc71w04oQLTG-34">
          <mxGeometry y="1" width="200" height="30" relative="1" as="geometry">
            <mxPoint y="-30" as="offset" />
          </mxGeometry>
        </mxCell>
        <mxCell id="JoFrPP1Ufc71w04oQLTG-40" value="" style="html=1;shadow=0;dashed=0;shape=mxgraph.bootstrap.rrect;rSize=5;strokeColor=#DFDFDF;html=1;whiteSpace=wrap;fillColor=#FFFFFF;fontColor=#000000;" vertex="1" parent="1">
          <mxGeometry x="-50" y="530" width="200" height="150" as="geometry" />
        </mxCell>
        <mxCell id="JoFrPP1Ufc71w04oQLTG-41" value="ba" style="html=1;shadow=0;dashed=0;shape=mxgraph.bootstrap.topButton;rSize=5;strokeColor=inherit;fillColor=#ffffff;fontColor=#6C767D;perimeter=none;whiteSpace=wrap;resizeWidth=1;align=left;spacing=10;" vertex="1" parent="JoFrPP1Ufc71w04oQLTG-40">
          <mxGeometry width="200" height="30" relative="1" as="geometry" />
        </mxCell>
        <mxCell id="JoFrPP1Ufc71w04oQLTG-42" value="be" style="strokeColor=inherit;fillColor=inherit;gradientColor=inherit;fontColor=inherit;html=1;shadow=0;dashed=0;perimeter=none;whiteSpace=wrap;resizeWidth=1;align=left;spacing=10;" vertex="1" parent="JoFrPP1Ufc71w04oQLTG-40">
          <mxGeometry width="200" height="30" relative="1" as="geometry">
            <mxPoint y="30" as="offset" />
          </mxGeometry>
        </mxCell>
        <mxCell id="JoFrPP1Ufc71w04oQLTG-43" value="bi" style="strokeColor=inherit;fillColor=inherit;gradientColor=inherit;fontColor=inherit;html=1;shadow=0;dashed=0;perimeter=none;whiteSpace=wrap;resizeWidth=1;align=left;spacing=10;" vertex="1" parent="JoFrPP1Ufc71w04oQLTG-40">
          <mxGeometry width="200" height="30" relative="1" as="geometry">
            <mxPoint y="60" as="offset" />
          </mxGeometry>
        </mxCell>
        <mxCell id="JoFrPP1Ufc71w04oQLTG-44" value="bo" style="strokeColor=inherit;fillColor=inherit;gradientColor=inherit;fontColor=inherit;html=1;shadow=0;dashed=0;perimeter=none;whiteSpace=wrap;resizeWidth=1;align=left;spacing=10;" vertex="1" parent="JoFrPP1Ufc71w04oQLTG-40">
          <mxGeometry width="200" height="30" relative="1" as="geometry">
            <mxPoint y="90" as="offset" />
          </mxGeometry>
        </mxCell>
        <mxCell id="JoFrPP1Ufc71w04oQLTG-45" value="bu" style="strokeColor=inherit;fillColor=inherit;gradientColor=inherit;fontColor=inherit;html=1;shadow=0;dashed=0;shape=mxgraph.bootstrap.bottomButton;rSize=5;perimeter=none;whiteSpace=wrap;resizeWidth=1;resizeHeight=0;align=left;spacing=10;" vertex="1" parent="JoFrPP1Ufc71w04oQLTG-40">
          <mxGeometry y="1" width="200" height="30" relative="1" as="geometry">
            <mxPoint y="-30" as="offset" />
          </mxGeometry>
        </mxCell>
        <mxCell id="JoFrPP1Ufc71w04oQLTG-46" style="edgeStyle=orthogonalEdgeStyle;rounded=0;orthogonalLoop=1;jettySize=auto;html=1;exitX=0.5;exitY=1;exitDx=0;exitDy=0;entryX=0.449;entryY=-0.065;entryDx=0;entryDy=0;entryPerimeter=0;" edge="1" parent="1" source="JoFrPP1Ufc71w04oQLTG-14" target="JoFrPP1Ufc71w04oQLTG-41">
          <mxGeometry relative="1" as="geometry" />
        </mxCell>
        <mxCell id="JoFrPP1Ufc71w04oQLTG-47" style="edgeStyle=orthogonalEdgeStyle;rounded=0;orthogonalLoop=1;jettySize=auto;html=1;exitX=0.5;exitY=1;exitDx=0;exitDy=0;entryX=0.526;entryY=-0.182;entryDx=0;entryDy=0;entryPerimeter=0;" edge="1" parent="1" source="JoFrPP1Ufc71w04oQLTG-20" target="JoFrPP1Ufc71w04oQLTG-35">
          <mxGeometry relative="1" as="geometry" />
        </mxCell>
        <mxCell id="JoFrPP1Ufc71w04oQLTG-48" style="edgeStyle=orthogonalEdgeStyle;rounded=0;orthogonalLoop=1;jettySize=auto;html=1;exitX=0.5;exitY=1;exitDx=0;exitDy=0;entryX=0.503;entryY=0.014;entryDx=0;entryDy=0;entryPerimeter=0;" edge="1" parent="1" source="JoFrPP1Ufc71w04oQLTG-22" target="JoFrPP1Ufc71w04oQLTG-29">
          <mxGeometry relative="1" as="geometry" />
        </mxCell>
      </root>
    </mxGraphModel>
  </diagram>
</mxfile>
